<svg width="8" height="8" viewBox="0 0 8 8" fill="none" xmlns="http://www.w3.org/2000/svg">
<g clip-path="url(#clip0_201_18855)">
<path d="M3.13844 5.95771H2.02775V5.40236H3.13844V5.95771ZM3.13844 4.84702H2.02775V4.29168H3.13844V4.84702ZM3.13844 1.2373V1.51498H2.02775C1.71954 1.51498 1.47241 1.7621 1.47241 2.07032V6.51305C1.47241 6.66033 1.53092 6.80159 1.63507 6.90573C1.73921 7.00988 1.88047 7.06839 2.02775 7.06839H3.13844V7.34606H3.69378V1.2373H3.13844ZM5.91514 3.181V6.51305C5.91514 6.82126 5.66802 7.06839 5.3598 7.06839H4.24912V6.51305H5.3598V4.01401H4.24912V3.45867H5.49864L4.24912 2.20915V1.51498L5.91514 3.181ZM4.80446 4.84702H4.24912V4.29168H4.80446V4.84702ZM4.80446 5.95771H4.24912V5.40236H4.80446V5.95771Z" fill="black"/>
</g>
<defs>
<clipPath id="clip0_201_18855">
<rect width="6.6641" height="6.6641" fill="white" transform="translate(0.361816 0.958984)"/>
</clipPath>
</defs>
</svg>
